<?xml version="1.0" standalone="no"?>
<!DOCTYPE svg PUBLIC "-//W3C//DTD SVG 20010904//EN"
 "http://www.w3.org/TR/2001/REC-SVG-20010904/DTD/svg10.dtd">
<svg version="1.0" xmlns="http://www.w3.org/2000/svg"
 width="501.000000pt" height="334.000000pt" viewBox="0 0 501.000000 334.000000"
 preserveAspectRatio="xMidYMid meet">

<g transform="translate(0.000000,334.000000) scale(0.100000,-0.100000)"
fill="#000000" stroke="none">
<path d="M1680 2920 l0 -410 415 0 415 0 0 410 0 410 -415 0 -415 0 0 -410z"/>
<path d="M2510 2090 l0 -410 1245 0 1245 0 0 410 0 410 -1245 0 -1245 0 0
-410z"/>
<path d="M20 1260 l0 -410 1245 0 1245 0 0 410 0 410 -1245 0 -1245 0 0 -410z"/>
<path d="M2510 430 l0 -410 415 0 415 0 0 410 0 410 -415 0 -415 0 0 -410z"/>
</g>
</svg>
